<svg width="982" height="846" viewBox="0 0 982 846" fill="none" xmlns="http://www.w3.org/2000/svg">
<path d="M947.771 844.706L945.868 114.015" stroke="#E1E1E1" stroke-opacity="0.26" stroke-linecap="round"/>
<path d="M982 798.203C712.538 826.615 -252.243 1038.25 65.4561 267.357L181.696 0H982V798.203Z" fill="#13183B"/>
<path d="M65.1438 368.03C114.692 366.157 217.901 365.782 234.346 379.268C288.112 425.626 265.973 487.437 365.597 512.724C477.872 541.221 517.405 373.649 618.61 438.27C719.816 502.89 877.949 618.084 928.552 581.559C967.281 553.604 969.666 512.256 974.41 501.485" stroke="#9CB8FF" stroke-opacity="0.76" stroke-dasharray="2 2"/>
<path d="M65.1439 302.166C114.774 299.077 194.801 276.718 234.625 320.7C288.479 397.151 257.643 523.03 366.092 540.787C477.834 559.082 484.159 353.982 615.397 393.316C764.206 437.916 749.798 696.753 929.974 654.306C994.902 639.009 971.156 540.015 975.908 522.253" stroke="#9CB8FF" stroke-opacity="0.76"/>
<path d="M74.3804 382.077V455.127" stroke="#12DD00" stroke-opacity="0.94" stroke-width="0.5"/>
<rect x="65.1438" y="418.602" width="18.4732" height="33.7152" rx="1" fill="#12DD00" fill-opacity="0.94"/>
<path d="M102.09 370.839V480.413" stroke="#12DD00" stroke-opacity="0.94" stroke-width="0.5"/>
<rect x="92.8537" y="418.602" width="18.4732" height="59.0016" rx="1" fill="#12DD00" fill-opacity="0.94"/>
<path d="M477.711 727.658V792.279" stroke="#12DD00" stroke-opacity="0.94" stroke-width="0.5"/>
<rect x="468.474" y="750.135" width="18.4732" height="19.6672" rx="1" fill="#12DD00" fill-opacity="0.94"/>
<path d="M508.5 691.133V789.469" stroke="#12DD00" stroke-opacity="0.94" stroke-width="0.5"/>
<rect x="499.263" y="697.838" width="18.4732" height="42.4633" rx="1" fill="#12DD00" fill-opacity="0.94"/>
<path d="M539.288 648.989V778.231" stroke="#12DD00" stroke-opacity="0.94" stroke-width="0.5"/>
<rect x="530.051" y="674.276" width="18.4732" height="84.288" rx="1" fill="#12DD00" fill-opacity="0.94"/>
<path d="M637.812 522.557V632.132" stroke="#12DD00" stroke-opacity="0.94" stroke-width="0.5"/>
<rect x="628.575" y="559.082" width="18.4732" height="59.0016" rx="1" fill="#12DD00" fill-opacity="0.94"/>
<path d="M665.521 404.554V612.465" stroke="#12DD00" stroke-opacity="0.94" stroke-width="0.5"/>
<rect x="656.285" y="435.46" width="18.4732" height="157.338" rx="1" fill="#12DD00" fill-opacity="0.94"/>
<path d="M742.493 469.175V629.322" stroke="#12DD00" stroke-opacity="0.94" stroke-width="0.5"/>
<rect x="733.256" y="480.413" width="18.4732" height="86.2331" rx="1" fill="#12DD00" fill-opacity="0.94"/>
<path d="M804.07 390.506V598.417" stroke="#12DD00" stroke-opacity="0.94" stroke-width="0.5"/>
<rect x="794.833" y="459.81" width="18.4732" height="111.952" rx="1" fill="#12DD00" fill-opacity="0.94"/>
<path d="M844.095 314.647V522.557" stroke="#12DD00" stroke-opacity="0.94" stroke-width="0.5"/>
<rect x="834.858" y="383.951" width="18.4732" height="111.952" rx="1" fill="#12DD00" fill-opacity="0.94"/>
<path d="M157.509 379.268V488.842" stroke="#12DD00" stroke-opacity="0.94" stroke-width="0.5"/>
<rect x="148.273" y="452.317" width="18.4732" height="22.4768" rx="1" fill="#12DD00" fill-opacity="0.94"/>
<path d="M212.929 396.125V553.463" stroke="#12DD00" stroke-opacity="0.94" stroke-width="0.5"/>
<rect x="203.693" y="410.173" width="18.4732" height="22.4768" rx="1" fill="#12DD00" fill-opacity="0.94"/>
<path d="M268.349 500.081V609.655" stroke="#12DD00" stroke-opacity="0.94" stroke-width="0.5"/>
<rect x="259.112" y="511.319" width="18.4732" height="59.0016" rx="1" fill="#12DD00" fill-opacity="0.94"/>
<path d="M329.926 448.859V632.132" stroke="#12DD00" stroke-opacity="0.94" stroke-width="0.5"/>
<rect x="320.689" y="500.081" width="18.4732" height="80.1816" rx="1" fill="#12DD00" fill-opacity="0.94"/>
<path d="M363.793 587.178V668.657" stroke="#12DD00" stroke-opacity="0.94" stroke-width="0.5"/>
<rect x="354.557" y="601.226" width="18.4732" height="59.0016" rx="1" fill="#12DD00" fill-opacity="0.94"/>
<path d="M129.131 334.314V469.175" stroke="#FF3F3F" stroke-opacity="0.9" stroke-width="0.463768"/>
<rect width="18.4732" height="14.048" rx="0.927536" transform="matrix(-1 0 0 1 139.037 345.553)" fill="#FF3F3F" fill-opacity="0.9"/>
<path d="M185.219 415.793L184.55 508.509" stroke="#FF3F3F" stroke-opacity="0.9" stroke-width="0.463768"/>
<rect width="18.4732" height="59.0016" rx="0.927536" transform="matrix(-1 0 0 1 194.456 438.27)" fill="#FF3F3F" fill-opacity="0.9"/>
<path d="M391.503 603.875L390.833 784.01" stroke="#FF3F3F" stroke-opacity="0.9" stroke-width="0.463768"/>
<rect width="18.4732" height="118.003" rx="0.927536" transform="matrix(-1 0 0 1 400.739 643.37)" fill="#FF3F3F" fill-opacity="0.9"/>
<path d="M416.134 707.59L415.464 787.061" stroke="#FF3F3F" stroke-opacity="0.9" stroke-width="0.463768"/>
<rect width="18.4732" height="22.3115" rx="0.927536" transform="matrix(-1 0 0 1 425.37 754.763)" fill="#FF3F3F" fill-opacity="0.9"/>
<path d="M446.922 734.963L446.253 790.593" stroke="#FF3F3F" stroke-opacity="0.9" stroke-width="0.463768"/>
<rect width="18.4732" height="15.6181" rx="0.927536" transform="matrix(-1 0 0 1 456.159 767.984)" fill="#FF3F3F" fill-opacity="0.9"/>
<path d="M570.077 587.178L569.407 722.039" stroke="#FF3F3F" stroke-opacity="0.9" stroke-width="0.463768"/>
<rect width="18.4732" height="75.8592" rx="0.927536" transform="matrix(-1 0 0 1 579.313 609.655)" fill="#FF3F3F" fill-opacity="0.9"/>
<path d="M600.865 555.871L600.196 667.613" stroke="#FF3F3F" stroke-opacity="0.9" stroke-width="0.463768"/>
<rect width="18.4732" height="46.238" rx="0.927536" transform="matrix(-1 0 0 1 610.102 586.697)" fill="#FF3F3F" fill-opacity="0.9"/>
<path d="M702.468 541.823L701.798 653.565" stroke="#FF3F3F" stroke-opacity="0.9" stroke-width="0.463768"/>
<rect width="18.4732" height="44.9536" rx="0.927536" transform="matrix(-1 0 0 1 711.704 573.13)" fill="#FF3F3F" fill-opacity="0.9"/>
<path d="M871.805 278.122V382.077" stroke="#FF3F3F" stroke-opacity="0.9" stroke-width="0.463768"/>
<rect width="18.4732" height="28.096" rx="0.927536" transform="matrix(-1 0 0 1 881.041 325.885)" fill="#FF3F3F" fill-opacity="0.9"/>
<path d="M899.515 323.076V427.031" stroke="#FF3F3F" stroke-opacity="0.9" stroke-width="0.463768"/>
<rect width="18.4732" height="42.144" rx="0.927536" transform="matrix(-1 0 0 1 908.751 370.839)" fill="#FF3F3F" fill-opacity="0.9"/>
<path d="M770.202 375.174L769.533 518.222" stroke="#FF3F3F" stroke-opacity="0.9" stroke-width="0.463768"/>
<rect width="18.4732" height="56.192" rx="0.927536" transform="matrix(-1 0 0 1 779.439 435.46)" fill="#FF3F3F" fill-opacity="0.9"/>
<path d="M240.639 462.691L239.969 576.804" stroke="#FF3F3F" stroke-opacity="0.9" stroke-width="0.463768"/>
<rect width="18.4732" height="80.83" rx="0.927536" transform="matrix(-1 0 0 1 249.875 494.461)" fill="#FF3F3F" fill-opacity="0.9"/>
<path d="M302.216 506.564L301.546 662.173" stroke="#FF3F3F" stroke-opacity="0.9" stroke-width="0.463768"/>
<rect width="18.4732" height="33.7152" rx="0.927536" transform="matrix(-1 0 0 1 311.452 618.084)" fill="#FF3F3F" fill-opacity="0.9"/>
<path d="M927.224 323.076V427.031" stroke="#FF3F3F" stroke-opacity="0.9" stroke-width="0.463768"/>
<rect width="18.4732" height="19.6672" rx="0.927536" transform="matrix(-1 0 0 1 936.461 393.316)" fill="#FF3F3F" fill-opacity="0.9"/>
<path d="M929.461 369.05L929.503 393.05" stroke="#FF3F3F" stroke-opacity="0.9" stroke-width="0.463768"/>
<rect width="6.08481" height="7" rx="0.927536" transform="matrix(-1 0 0 1 932.545 374.05)" fill="#FF3F3F" fill-opacity="0.9"/>
<path d="M969.856 407.291L969.985 474.722" stroke="#12DD00" stroke-opacity="0.94" stroke-width="0.5"/>
<rect x="966.82" y="426.958" width="6.0719" height="22.4768" rx="1" fill="#12DD00" fill-opacity="0.94"/>
<path d="M65.1439 716.347L975.928 213.429" stroke="#9CB8FF" stroke-opacity="0.76" stroke-linecap="round"/>
<ellipse cx="969.856" cy="216.238" rx="12.1438" ry="11.2384" fill="#9CB8FF" fill-opacity="0.76"/>
<ellipse cx="65.1438" cy="713.538" rx="12.1438" ry="11.2384" fill="#9CB8FF" fill-opacity="0.76"/>
<path d="M5.68426 479.649L981.998 477.971" stroke="#E1E1E1" stroke-opacity="0.26" stroke-linecap="round"/>
<path d="M5.68426 427.367L981.998 425.69" stroke="#E1E1E1" stroke-opacity="0.26" stroke-linecap="round"/>
<path d="M5.68426 375.086L981.998 373.408" stroke="#E1E1E1" stroke-opacity="0.26" stroke-linecap="round"/>
<path d="M5.68426 322.804L981.998 321.126" stroke="#E1E1E1" stroke-opacity="0.26" stroke-linecap="round"/>
<path d="M5.68426 270.523L981.998 268.845" stroke="#E1E1E1" stroke-opacity="0.26" stroke-linecap="round"/>
<path d="M5.68426 218.241L981.998 216.563" stroke="#E1E1E1" stroke-opacity="0.26" stroke-linecap="round"/>
<path d="M5.68426 165.959L981.998 164.282" stroke="#E1E1E1" stroke-opacity="0.26" stroke-linecap="round"/>
<path d="M3.00211 793.718L979.316 792.041" stroke="#E1E1E1" stroke-opacity="0.26" stroke-linecap="round"/>
<path d="M3.00211 741.437L979.316 739.759" stroke="#E1E1E1" stroke-opacity="0.26" stroke-linecap="round"/>
<path d="M3.00211 689.155L979.316 687.478" stroke="#E1E1E1" stroke-opacity="0.26" stroke-linecap="round"/>
<path d="M3.00211 636.874L979.316 635.196" stroke="#E1E1E1" stroke-opacity="0.26" stroke-linecap="round"/>
<path d="M3.00211 584.592L979.316 582.914" stroke="#E1E1E1" stroke-opacity="0.26" stroke-linecap="round"/>
<path d="M3.00211 532.311L979.316 530.633" stroke="#E1E1E1" stroke-opacity="0.26" stroke-linecap="round"/>
<path d="M3.00216 480.029L979.316 478.351" stroke="#E1E1E1" stroke-opacity="0.26" stroke-linecap="round"/>
<path d="M358.422 842.693L356.519 112.002" stroke="#E1E1E1" stroke-opacity="0.26" stroke-linecap="round"/>
<path d="M299.122 842.693L297.219 112.002" stroke="#E1E1E1" stroke-opacity="0.26" stroke-linecap="round"/>
<path d="M239.823 842.693L237.92 112.002" stroke="#E1E1E1" stroke-opacity="0.26" stroke-linecap="round"/>
<path d="M180.524 842.693L178.621 112.002" stroke="#E1E1E1" stroke-opacity="0.26" stroke-linecap="round"/>
<path d="M121.225 842.693L119.322 112.002" stroke="#E1E1E1" stroke-opacity="0.26" stroke-linecap="round"/>
<path d="M61.9259 842.693L60.0229 112.002" stroke="#E1E1E1" stroke-opacity="0.26" stroke-linecap="round"/>
<path d="M2.62676 842.693L0.723816 112.002" stroke="#E1E1E1" stroke-opacity="0.26" stroke-linecap="round"/>
<path d="M773.947 844.7L772.044 114.009" stroke="#E1E1E1" stroke-opacity="0.26" stroke-linecap="round"/>
<path d="M714.648 844.7L712.745 114.009" stroke="#E1E1E1" stroke-opacity="0.26" stroke-linecap="round"/>
<path d="M655.349 844.7L653.446 114.009" stroke="url(#paint0_linear_41_765)" stroke-opacity="0.26" stroke-linecap="round"/>
<path d="M596.049 844.7L594.146 114.009" stroke="#E1E1E1" stroke-opacity="0.26" stroke-linecap="round"/>
<path d="M536.751 844.7L534.848 114.009" stroke="#E1E1E1" stroke-opacity="0.26" stroke-linecap="round"/>
<path d="M477.451 844.7L475.548 114.009" stroke="#E1E1E1" stroke-opacity="0.26" stroke-linecap="round"/>
<path d="M418.152 844.7L416.249 114.009" stroke="#E1E1E1" stroke-opacity="0.26" stroke-linecap="round"/>
<path d="M358.853 844.7L356.95 114.009" stroke="#E1E1E1" stroke-opacity="0.26" stroke-linecap="round"/>
<path d="M888.472 844.706L886.569 114.015" stroke="#E1E1E1" stroke-opacity="0.26" stroke-linecap="round"/>
<path d="M829.172 844.706L827.27 114.015" stroke="#E1E1E1" stroke-opacity="0.26" stroke-linecap="round"/>
<defs>
<linearGradient id="paint0_linear_41_765" x1="652.992" y1="833.5" x2="655.784" y2="127.003" gradientUnits="userSpaceOnUse">
<stop stop-color="white" stop-opacity="0.22"/>
<stop offset="0.517289" stop-color="#E7E7E7"/>
<stop offset="1" stop-color="white" stop-opacity="0.36"/>
</linearGradient>
</defs>
</svg>
